<svg id="Layer_1" data-name="Layer 1" xmlns="http://www.w3.org/2000/svg" width="200" height="89.67" viewBox="0 0 200 89.67"><defs><style>.cls-1{fill:#fff;}.cls-2{fill:none;stroke:#fff;stroke-linecap:round;stroke-miterlimit:10;stroke-width:1.03px;}</style></defs><title>Artboard 1</title><path class="cls-1" d="M32.62,70.3a9.39,9.39,0,0,0,.77-2.47c0-.26-.17-.37-.52-.42L32,67.28a.32.32,0,0,1,.09-.46c.86,0,1.45.05,2,.05.4,0,.85,0,1.23-.05a9.59,9.59,0,0,0,.09,3.59l.29,2.37c.2,1.58.31,2.56.4,3.37h0c.72-.86,1.42-1.8,2.12-2.71l2.93-3.77A9.47,9.47,0,0,0,43,66.82a9.56,9.56,0,0,0,1.14.05c.72,0,1.29,0,1.86-.05.15.09.09.35,0,.46l-.42.07c-.64.11-.92.22-1.1.42a7,7,0,0,0-.85,2.28L42,75.76a13.85,13.85,0,0,0-.53,2.3c0,.29.22.46.74.5l.63.05a.31.31,0,0,1-.07.46c-.68,0-1.51-.06-2.36-.06s-1.55,0-2.23.06a.32.32,0,0,1,0-.46l.48-.05a2,2,0,0,0,1-.35,8.53,8.53,0,0,0,.94-2.34l1.47-4.82c.29-.94.55-1.77.7-2.32l-.06,0C42.5,69,42,69.67,41,71l-2.8,3.63a41.73,41.73,0,0,0-2.94,4.14.28.28,0,0,1-.35-.07,34.65,34.65,0,0,0-.29-3.75L34,68.71h0c-.29.66-.57,1.44-.85,2.19l-1.38,3.72a15.55,15.55,0,0,0-1.1,3.44c0,.2.09.35.55.42l.79.13a.46.46,0,0,1-.06.46c-.52,0-1.25-.06-2.12-.06s-1.38,0-2,.06c-.11-.11-.11-.41,0-.46l.5-.05a1.4,1.4,0,0,0,1-.5,41.23,41.23,0,0,0,2.23-5.28Z"/><path class="cls-1" d="M47.3,73c.09-.2.09-.35,0-.35a4.24,4.24,0,0,0-1.53,1,.26.26,0,0,1-.24-.31,5.32,5.32,0,0,1,3-1.84c.13,0,.22.11.29.18s.11.28-.11.81l-2.19,5.23c-.07.18-.09.4.06.4a4.43,4.43,0,0,0,1.91-1.36.29.29,0,0,1,.28.31c-.28.53-2.17,2.19-3.44,2.19a.41.41,0,0,1-.29-.17.44.44,0,0,1-.07-.5Zm2.19-4.62a1.08,1.08,0,0,1-1,1.14.62.62,0,0,1-.64-.68c0-.4.26-1.16,1-1.16C49.29,67.72,49.49,68,49.49,68.42Z"/><path class="cls-1" d="M55.32,66,54,69.73l-1.9,5.5,0,0a11.67,11.67,0,0,1,2.91-3,3.15,3.15,0,0,1,1.75-.72c.81,0,1.1.59,1.1,1.23a10.56,10.56,0,0,1-1.44,4.31,6.48,6.48,0,0,1-1.2,1.51,2,2,0,0,1-1.34.72c-.61,0-.68-.39-.68-.53a.58.58,0,0,1,.5-.59.44.44,0,0,1,.26.11,1.06,1.06,0,0,0,.48.24c.28,0,.46-.28.74-.92a18.92,18.92,0,0,0,1.32-4.75c0-.35-.13-.55-.39-.55a2,2,0,0,0-1,.5,11.64,11.64,0,0,0-2.34,2.45,29.84,29.84,0,0,0-2.23,3.83.34.34,0,0,1-.33.22c-.2,0-.68-.06-.53-.48l3.5-10.34c.4-1.21.5-1.47.2-1.67L53,66.52a.18.18,0,0,1,.06-.24,10,10,0,0,1,2.15-.42Z"/><path class="cls-1" d="M65.26,71.09a.77.77,0,0,1,.9.28c-.28.68-1.88,4.75-2.47,6.42-.11.31,0,.42.13.42.31,0,.85-.31,1.9-1.23a.25.25,0,0,1,.26.24c-.77,1-2.08,2.06-3.09,2.06a.51.51,0,0,1-.53-.5,2.37,2.37,0,0,1,.18-.72l.61-1.66-.06,0c-1.31,1.62-3.18,2.89-4,2.89a.93.93,0,0,1-.81-1,9.92,9.92,0,0,1,4-5.94,3.22,3.22,0,0,1,1.66-.53.91.91,0,0,1,.44.11,1.06,1.06,0,0,1,.37.39Zm-3.2,2.1A8.17,8.17,0,0,0,59.75,78c0,.22.11.35.28.35s.74-.24,1.79-1.2a8.9,8.9,0,0,0,2.47-4,1,1,0,0,0-.92-.66C62.92,72.47,62.63,72.67,62.06,73.19Z"/><path class="cls-1" d="M72.95,72.61c0,1.4-1.82,2.32-4.47,3.05a4.65,4.65,0,0,0-.26,1.64.94.94,0,0,0,.88,1c.66,0,1.12-.37,1.93-1.07a.25.25,0,0,1,.24.31,3.76,3.76,0,0,1-2.94,1.67c-1.1,0-1.49-1-1.49-1.93a6.92,6.92,0,0,1,2.74-5,3.53,3.53,0,0,1,2.21-.88A1.15,1.15,0,0,1,72.95,72.61ZM70,73a7.34,7.34,0,0,0-1.36,2.15,5.35,5.35,0,0,0,2.47-1.36,2.08,2.08,0,0,0,.72-1.25.39.39,0,0,0-.42-.42C71.16,72.08,70.68,72.25,70,73Z"/><path class="cls-1" d="M74.66,77.82c-.15.42-.13.61.07.61.4,0,1.27-.9,2.12-1.86a.24.24,0,0,1,.29.26c-.48.92-1.64,2.45-3.17,2.45-.55,0-.72-.26-.72-.55a5.54,5.54,0,0,1,.4-1.56l2.93-8.7c.44-1.29.26-1.47,0-1.6l-.33-.15a.19.19,0,0,1,0-.29,10.69,10.69,0,0,1,2.32-.55l.09.11c-.24.66-.42,1.18-1.09,3.17Z"/><path class="cls-1" d="M84.32,71.09a.77.77,0,0,1,.9.28c-.28.68-1.88,4.75-2.47,6.42-.11.31,0,.42.13.42.31,0,.85-.31,1.9-1.23a.25.25,0,0,1,.26.24c-.77,1-2.08,2.06-3.09,2.06a.51.51,0,0,1-.53-.5,2.37,2.37,0,0,1,.18-.72l.61-1.66-.06,0c-1.31,1.62-3.18,2.89-4,2.89a.93.93,0,0,1-.81-1,9.92,9.92,0,0,1,4-5.94A3.22,3.22,0,0,1,83,71.77a.91.91,0,0,1,.44.11,1.06,1.06,0,0,1,.37.39Zm-3.2,2.1A8.17,8.17,0,0,0,78.81,78c0,.22.11.35.28.35s.74-.24,1.79-1.2a8.9,8.9,0,0,0,2.47-4,1,1,0,0,0-.92-.66C82,72.47,81.69,72.67,81.11,73.19Z"/><path class="cls-1" d="M90.35,78a5.1,5.1,0,0,1,.33-2.13.27.27,0,0,1,.39,0c.13,1.6.88,2.82,2.72,2.82a2.56,2.56,0,0,0,2.69-2.59c0-1.36-.87-2.12-1.84-2.89a4.41,4.41,0,0,1-1.91-3.2c0-2,1.58-3.48,4-3.48a5.28,5.28,0,0,1,2.67.74,13.27,13.27,0,0,0-.68,2.13.41.41,0,0,1-.5,0c.26-1.25-.09-2.28-1.73-2.28A2.27,2.27,0,0,0,94,69.51c0,1.23,1.12,2.13,1.79,2.65a4.15,4.15,0,0,1,2,3.35c0,2.19-1.67,3.81-4.23,3.81A3.9,3.9,0,0,1,90.35,78Z"/><path class="cls-1" d="M102.18,72.49l-1.71,5c-.11.35,0,.46.13.46a6.74,6.74,0,0,0,2.1-1.66c.18,0,.29.11.26.33-1,1.53-2.76,2.65-3.53,2.65a.55.55,0,0,1-.5-.5,3.54,3.54,0,0,1,.26-1L101,72.49H99.53a.46.46,0,0,1,.2-.51l1.47-.26,1-1.82a.62.62,0,0,1,.7.11l-.53,1.8h2a.53.53,0,0,1-.22.68Z"/><path class="cls-1" d="M110.44,73.83a7,7,0,0,1-2,4.18,3.53,3.53,0,0,1-2.63,1.27c-1.18,0-2-.87-1.84-2.45a6.9,6.9,0,0,1,2-4.12,3.58,3.58,0,0,1,2.54-1.2C109.87,71.51,110.52,72.49,110.44,73.83Zm-3.35-.88a10.64,10.64,0,0,0-1.84,4.6c0,.64.22,1.18.75,1.18s.86-.17,1.45-1a11.36,11.36,0,0,0,1.71-4.49c0-.57-.09-1.21-.74-1.21C108.07,72.06,107.63,72.23,107.09,72.95Z"/><path class="cls-1" d="M113.92,73c.09-.2.09-.35,0-.35a4.25,4.25,0,0,0-1.53,1,.26.26,0,0,1-.24-.31,5.32,5.32,0,0,1,3-1.84c.13,0,.22.11.29.18s.11.28-.11.81l-2.19,5.23c-.07.18-.09.4.05.4a4.43,4.43,0,0,0,1.91-1.36.29.29,0,0,1,.28.31c-.28.53-2.17,2.19-3.44,2.19a.41.41,0,0,1-.29-.17.44.44,0,0,1-.07-.5Zm2.19-4.62a1.08,1.08,0,0,1-1,1.14.62.62,0,0,1-.64-.68c0-.4.26-1.16,1-1.16C115.9,67.72,116.11,68,116.11,68.42Z"/><path class="cls-1" d="M123.14,71.09a.77.77,0,0,1,.9.28c-.28.68-1.88,4.75-2.47,6.42-.11.31,0,.42.13.42.31,0,.85-.31,1.9-1.23a.25.25,0,0,1,.26.24c-.77,1-2.08,2.06-3.09,2.06a.51.51,0,0,1-.53-.5,2.39,2.39,0,0,1,.18-.72l.61-1.66-.05,0c-1.31,1.62-3.18,2.89-4,2.89a.93.93,0,0,1-.81-1,9.92,9.92,0,0,1,4-5.94,3.22,3.22,0,0,1,1.66-.53.91.91,0,0,1,.44.11,1.07,1.07,0,0,1,.37.39Zm-3.2,2.1a8.17,8.17,0,0,0-2.3,4.77c0,.22.11.35.28.35s.74-.24,1.78-1.2a8.88,8.88,0,0,0,2.47-4,1,1,0,0,0-.92-.66C120.8,72.47,120.5,72.67,119.93,73.19Z"/><path class="cls-1" d="M127.16,75.49l.06,0c1.31-2,3.13-4,4.51-4a.9.9,0,0,1,1,1,5,5,0,0,1-.29,1.29c-.33.92-1.66,3.92-1.71,4.07s-.09.35,0,.35A3.81,3.81,0,0,0,132.52,77c.26,0,.29.11.29.26a4.3,4.3,0,0,1-3.17,2.06.55.55,0,0,1-.44-.46c0-.17.06-.29.44-1.21s1.07-2.71,1.49-3.62a4.34,4.34,0,0,0,.39-1.34c0-.22,0-.44-.29-.44-.44,0-1.53.92-2.54,2.19a30.53,30.53,0,0,0-2.82,4.67c-.09.17-.17.22-.33.22s-.7-.06-.53-.48l2.13-5.8c.09-.24.09-.42-.05-.42a3.2,3.2,0,0,0-1.67.92.23.23,0,0,1-.22-.28,3.9,3.9,0,0,1,2.74-1.71c.44,0,.64.33.48.75Z"/><path class="cls-1" d="M136.07,78.32c0,1.33-1.56,2.3-2.78,2.65a.29.29,0,0,1-.13-.37c.61-.28,1.69-.9,1.69-1.91a.72.72,0,0,0-.61-.72.41.41,0,0,1-.28-.41.75.75,0,0,1,.79-.7A1.37,1.37,0,0,1,136.07,78.32Z"/><path class="cls-1" d="M145.71,71.72c.25-.82.16-.94-.23-1l-.53-.07a.23.23,0,0,1,0-.32c.2,0,1.36-.13,2.47-.13,3.83,0,4.78,1.94,4.78,3.63a4.81,4.81,0,0,1-2.1,4,7.84,7.84,0,0,1-4.44,1.2c-.4,0-.88,0-1.66,0-.54,0-1,0-1.46,0a.22.22,0,0,1,0-.33l.34,0c.61-.07.76-.23,1.17-1.58Zm-.8,5.78c-.24.78,0,1.09,1.21,1.09a4.72,4.72,0,0,0,4.9-4.67c0-1.26-.2-3.31-3.51-3.31-.41,0-.49.09-.62.52Z"/><path class="cls-1" d="M155.35,72.72a6.76,6.76,0,0,0,.56-1.78c0-.19-.12-.27-.37-.31l-.62-.09a.23.23,0,0,1,.07-.33c.62,0,1,0,1.46,0s.61,0,.89,0a6.94,6.94,0,0,0,.07,2.59l.21,1.71c.15,1.14.23,1.85.29,2.43h0c.52-.62,1-1.3,1.53-2l2.11-2.72a6.84,6.84,0,0,0,1.29-2.06,6.82,6.82,0,0,0,.82,0c.52,0,.93,0,1.34,0,.11.07.07.25,0,.33l-.31.05c-.46.08-.66.16-.8.31a5,5,0,0,0-.61,1.65l-1.16,4.12a10.06,10.06,0,0,0-.39,1.66c0,.21.16.33.53.36l.45,0a.22.22,0,0,1-.05.33c-.49,0-1.09,0-1.7,0s-1.12,0-1.61,0a.23.23,0,0,1,0-.33l.35,0a1.41,1.41,0,0,0,.73-.25,6.13,6.13,0,0,0,.68-1.69l1.06-3.48c.21-.68.4-1.28.5-1.67h0c-.19.24-.52.69-1.24,1.62l-2,2.62a30.13,30.13,0,0,0-2.13,3,.2.2,0,0,1-.25-.05,24.79,24.79,0,0,0-.21-2.71l-.45-4.46h0c-.21.48-.41,1-.61,1.58l-1,2.68a11.22,11.22,0,0,0-.8,2.49c0,.15.07.25.4.31l.57.09a.33.33,0,0,1,0,.33c-.37,0-.9,0-1.53,0s-1,0-1.42,0c-.08-.08-.08-.29,0-.33l.36,0a1,1,0,0,0,.76-.36,29.64,29.64,0,0,0,1.61-3.81Z"/><path class="cls-1" d="M167.15,71.72c.25-.82.16-.94-.23-1l-.53-.07a.23.23,0,0,1,0-.32c.2,0,1.36-.13,2.47-.13,3.83,0,4.78,1.94,4.78,3.63a4.81,4.81,0,0,1-2.1,4,7.84,7.84,0,0,1-4.44,1.2c-.4,0-.88,0-1.66,0-.54,0-1,0-1.46,0a.22.22,0,0,1,0-.33l.34,0c.61-.07.76-.23,1.17-1.58Zm-.8,5.78c-.24.78,0,1.09,1.21,1.09a4.72,4.72,0,0,0,4.9-4.67c0-1.26-.2-3.31-3.51-3.31-.41,0-.49.09-.62.52Z"/><path class="cls-1" d="M26.27,22c0,.79,0,.88.79.88h2.17c1.49,0,1.8-.2,2.09-1.63l.14-.7a.83.83,0,0,1,1.07,0c-.06.93-.08,2-.08,3.12s0,2.16.08,3a.83.83,0,0,1-1.07,0l-.14-.7c-.28-1.4-.59-1.63-2.09-1.63H27.06c-.76,0-.79.09-.79.87v3.94c0,2.71.17,2.94,1.44,3.12l1,.15a1,1,0,0,1,0,1c-1.75-.06-3.13-.09-4.48-.09s-2.71,0-4.4.09a.85.85,0,0,1,0-1l.93-.15c1.27-.2,1.44-.41,1.44-3.12V18.35c0-2.71-.17-3-1.44-3.18l-.56-.09c-.25-.18-.25-.9.06-1,1.21.06,2.62.09,4,.09h5.92c1.8,0,3.41,0,3.8-.09,0,.5,0,2.6.06,4.55-.11.32-.73.35-1.07.12a7.41,7.41,0,0,0-.82-2.27,3.27,3.27,0,0,0-2.76-1H27.2c-.93,0-.93.06-.93,1.2Z"/><path class="cls-1" d="M43.46,29.4c-.11,2,.7,2.51,1.27,2.51a2,2,0,0,0,1.07-.35.55.55,0,0,1,.34.67,4.55,4.55,0,0,1-3.27,1.57,3.27,3.27,0,0,1-2.37-1c-.2-.17-.31-.23-.45-.23s-.31.12-.59.32a4.09,4.09,0,0,1-2.4.93,3,3,0,0,1-3.16-3.06c0-1.49.87-2.39,2.93-3,1.07-.35,1.86-.58,2.65-.82.51-.15.65-.35.68-.58s.06-.64.06-1c0-1.11-.42-2.51-1.63-2.51-.68,0-1.27.41-1.47,1.66a1.29,1.29,0,0,1-.48.93,4.66,4.66,0,0,1-2,.67c-.48,0-.65-.32-.65-.73a3.47,3.47,0,0,1,1.35-2.25,7.86,7.86,0,0,1,4.73-1.78c2.37,0,3.75,1.23,3.61,4.23Zm-3.38-.76c0-.47,0-.55-.2-.52-1.27.17-2.37.67-2.37,2A1.64,1.64,0,0,0,39,31.9c.87,0,1-.52,1.07-1.43Z"/><path class="cls-1" d="M47.86,25.61c0-1.17,0-1.52-.54-1.87l-.39-.26a.72.72,0,0,1,0-.87,22.93,22.93,0,0,0,4.17-1.69.56.56,0,0,1,.51.26c0,.41-.08,1.11-.08,1.31s.06.23.14.23a2.4,2.4,0,0,0,.54-.23,6.56,6.56,0,0,1,3.24-1.17A3.19,3.19,0,0,1,58,22.43c.34.41.51.52.68.52a5.86,5.86,0,0,0,.9-.5,6.1,6.1,0,0,1,3.21-1.14A3.35,3.35,0,0,1,66.18,25v5c0,2,.11,2.27,1,2.39l.45.06a.82.82,0,0,1,0,1c-.87-.06-1.94-.09-3.3-.09-1.13,0-2.31,0-3.07.09a.82.82,0,0,1,0-1l.45-.06c.7-.09.82-.35.82-2v-5a1.95,1.95,0,0,0-3.47-1.31,1.64,1.64,0,0,0-.2.87v5.39c0,1.6.11,1.87.76,2l.45.06a.82.82,0,0,1,0,1c-.87-.06-1.78-.09-3-.09s-2.25,0-3,.09a.82.82,0,0,1,0-1l.45-.06c.65-.09.76-.35.76-2v-5a1.82,1.82,0,0,0-1.92-2,1.92,1.92,0,0,0-1.52.7,1.73,1.73,0,0,0-.23,1.08v5.22c0,1.6.11,1.87.82,2l.45.06a.81.81,0,0,1,0,1c-.87-.06-1.78-.09-3.13-.09s-2.37,0-3.21.09a.78.78,0,0,1-.06-1l.45-.06c.93-.12,1-.35,1-2.39Z"/><path class="cls-1" d="M74.24,30c0,2,.11,2.3,1,2.39l.54.06a.81.81,0,0,1,0,1c-1-.06-2.09-.09-3.38-.09s-2.45,0-3.38.09a.81.81,0,0,1,0-1l.54-.06c.93-.09,1-.35,1-2.39v-4.4c0-1.17,0-1.52-.54-1.87l-.39-.26a.72.72,0,0,1,0-.87,21.4,21.4,0,0,0,4.17-1.69.56.56,0,0,1,.51.26c-.06.87-.08,2.16-.08,3.47Zm.23-13.18A2,2,0,0,1,72.35,19a1.91,1.91,0,0,1-2-2.07,2.08,2.08,0,0,1,2.11-2.13A2,2,0,0,1,74.47,16.83Z"/><path class="cls-1" d="M78.41,17.18c0-1.17,0-1.49-.56-1.84l-.48-.29a.72.72,0,0,1,0-.87,27.49,27.49,0,0,0,4.31-1.63.61.61,0,0,1,.48.2c-.06,1.2-.08,2.42-.08,4.26V30c0,2,.11,2.27,1.1,2.39l.48.06a.82.82,0,0,1,0,1c-.93-.06-2.11-.09-3.38-.09s-2.4,0-3.38.09a.82.82,0,0,1,0-1l.54-.06c.93-.09,1-.35,1-2.39Z"/><path class="cls-1" d="M83.94,22.66c-.2-.2-.2-.9.08-1,1,.06,2.23.09,3.72.09,1,0,2.11,0,3.16-.09.28.12.31.82.08,1l-.56.12c-.79.18-.85.29-.85.55a14,14,0,0,0,.85,2.6c.31.82.93,2.6,1.27,3.32.31-.61.59-1.28.87-1.92l.51-1.2a15.08,15.08,0,0,0,1-2.95c0-.2-.28-.35-.62-.41l-.56-.12c-.25-.2-.23-.93.08-1,.62.06,1.47.09,2.73.09q1.1,0,2.2-.09c.28.12.31.85.06,1l-.54.06a1.81,1.81,0,0,0-1.3.64,22.92,22.92,0,0,0-1.66,3.06L93,29.6l-4.28,9.19a2.7,2.7,0,0,1-2.42,1.92A1.57,1.57,0,0,1,84.5,39a1.48,1.48,0,0,1,1.61-1.52h.68a1.58,1.58,0,0,0,1.38-.61,10.31,10.31,0,0,0,.82-1.6A3.45,3.45,0,0,0,89.38,34a6.16,6.16,0,0,0-.54-2.13l-2.71-7.06c-.54-1.4-.79-1.92-1.69-2.07Z"/><path class="cls-1" d="M107.3,18.87c0-2.77-.06-3.32-1.35-3.47l-.54-.06c-.28-.15-.28-1,.06-1,2.37-.15,4.57-.26,7.55-.26a19.09,19.09,0,0,1,6.57,1,8.83,8.83,0,0,1,5.72,8.46,9.34,9.34,0,0,1-5,8.72,15.27,15.27,0,0,1-7.13,1.37c-1.33,0-2.73-.17-3.75-.17-1.35,0-2.79,0-4.4.09a.85.85,0,0,1,0-1l.87-.15c1.27-.2,1.44-.44,1.44-3.12Zm4,9.24c0,1.6.06,2.65.56,3.27a3,3,0,0,0,2.34.85c4.88,0,6.54-4.49,6.54-8.46,0-5.25-2.68-8.37-7.78-8.37-.76,0-1.3.15-1.47.38a3.67,3.67,0,0,0-.2,1.69Z"/><path class="cls-1" d="M130.22,26.48c-.65,0-.71.06-.71.52,0,2.19,1.35,4.32,4,4.32a2.76,2.76,0,0,0,2.62-1.52.64.64,0,0,1,.73.67,5.39,5.39,0,0,1-4.93,3.32A5.63,5.63,0,0,1,126,27.85c0-3.67,2.56-6.53,6.09-6.53a4.15,4.15,0,0,1,4.51,4.2c0,.55-.14,1-1,1Zm1.86-1.28a2.19,2.19,0,0,0,1.16-.26c.14-.09.2-.38.2-.67a1.43,1.43,0,0,0-1.49-1.6,2.34,2.34,0,0,0-2.2,2.1c0,.41.39.44,1.3.44Z"/><path class="cls-1" d="M139.35,25.61c0-1.17,0-1.52-.54-1.87l-.39-.26a.72.72,0,0,1,0-.87,20.69,20.69,0,0,0,4.17-1.69.56.56,0,0,1,.51.26c0,.41-.08,1.11-.08,1.31s.06.23.14.23a2.42,2.42,0,0,0,.54-.23,6.78,6.78,0,0,1,3.24-1.17A3.38,3.38,0,0,1,150.45,25v5c0,2,.11,2.27,1.13,2.39l.45.06a.81.81,0,0,1,0,1c-.87-.06-2.06-.09-3.41-.09-1.13,0-2.23,0-3,.09a.82.82,0,0,1,0-1l.51-.09c.65-.12.76-.32.76-1.92V25.52a1.85,1.85,0,0,0-2-2.07,2,2,0,0,0-1.58.7,1.74,1.74,0,0,0-.23,1.08v5.22c0,1.6.11,1.87.82,2l.45.06a.82.82,0,0,1,0,1c-.87-.06-1.78-.09-3.13-.09-1.18,0-2.34,0-3.33.09a.81.81,0,0,1,0-1l.45-.06c1-.12,1.13-.35,1.13-2.39Z"/><path class="cls-1" d="M157.58,23.3c-.37,0-.39,0-.39.67v4.37c0,1.63,0,3.44,2,3.44a2.27,2.27,0,0,0,1.18-.44.65.65,0,0,1,.39.76,5.65,5.65,0,0,1-4.06,1.69c-2.34,0-3.16-1.4-3.16-3.32V24c0-.61,0-.67-.54-.67h-.87a.62.62,0,0,1-.17-.9,10.74,10.74,0,0,0,2.34-1.31,8.93,8.93,0,0,0,2.09-2.27.76.76,0,0,1,.85.15v2.19c0,.55,0,.58.54.58h2.51a.67.67,0,0,1,.22.55c0,.32-.08.85-.37,1Z"/><path class="cls-1" d="M171.48,29.4c-.11,2,.7,2.51,1.27,2.51a2,2,0,0,0,1.07-.35.55.55,0,0,1,.34.67,4.54,4.54,0,0,1-3.27,1.57,3.27,3.27,0,0,1-2.37-1c-.2-.17-.31-.23-.45-.23s-.31.12-.59.32a4.09,4.09,0,0,1-2.4.93,3,3,0,0,1-3.16-3.06c0-1.49.87-2.39,2.93-3,1.07-.35,1.86-.58,2.65-.82.51-.15.65-.35.68-.58s.06-.64.06-1c0-1.11-.42-2.51-1.63-2.51-.68,0-1.27.41-1.47,1.66a1.28,1.28,0,0,1-.48.93,4.66,4.66,0,0,1-2,.67c-.48,0-.65-.32-.65-.73a3.47,3.47,0,0,1,1.35-2.25,7.86,7.86,0,0,1,4.74-1.78c2.37,0,3.75,1.23,3.61,4.23Zm-3.38-.76c0-.47,0-.55-.2-.52-1.27.17-2.37.67-2.37,2A1.64,1.64,0,0,0,167,31.9c.87,0,1-.52,1.07-1.43Z"/><path class="cls-1" d="M176.21,17.18c0-1.17,0-1.49-.56-1.84l-.48-.29a.72.72,0,0,1,0-.87,27.53,27.53,0,0,0,4.31-1.63.61.61,0,0,1,.48.2c-.06,1.2-.08,2.42-.08,4.26V30c0,2,.11,2.27,1.1,2.39l.48.06a.81.81,0,0,1,0,1c-.93-.06-2.11-.09-3.38-.09s-2.4,0-3.38.09a.81.81,0,0,1,0-1l.54-.06c.93-.09,1-.35,1-2.39Z"/><path class="cls-1" d="M45.21,51.43c0,3-1.85,4.65-4.1,4.65s-4-1.81-4-4.48S38.88,47,41.24,47,45.21,48.81,45.21,51.43Zm-6.85.14c0,1.89,1,3.58,2.82,3.58S44,53.49,44,51.48c0-1.76-.92-3.59-2.82-3.59S38.35,49.63,38.35,51.57Z"/><path class="cls-1" d="M48.12,47.1h4.76v1H49.26V51H52.6v.94H49.26v4H48.12Z"/><path class="cls-1" d="M63.77,55.94,61.53,47.1h1.21l1,4.47c.26,1.1.5,2.2.66,3.05h0c.14-.88.42-1.93.72-3.07l1.18-4.46h1.19l1.07,4.48c.25,1,.48,2.1.62,3h0c.18-1,.43-2,.71-3.05l1.17-4.46h1.17l-2.5,8.83H68.62l-1.11-4.6a26.71,26.71,0,0,1-.58-2.88h0a27.76,27.76,0,0,1-.68,2.88L65,55.94Z"/><path class="cls-1" d="M79.42,51.79H76V55h3.83v1h-5V47.1h4.77v1H76v2.79h3.43Z"/><path class="cls-1" d="M82.58,54.55a4,4,0,0,0,2,.58c1.17,0,1.85-.62,1.85-1.51s-.47-1.3-1.67-1.76c-1.44-.51-2.33-1.26-2.33-2.5S83.61,47,85.33,47a4,4,0,0,1,2,.43l-.31.93a3.52,3.52,0,0,0-1.68-.42c-1.21,0-1.67.72-1.67,1.32,0,.83.54,1.23,1.76,1.7,1.49.58,2.25,1.3,2.25,2.59s-1,2.54-3.09,2.54a4.57,4.57,0,0,1-2.25-.56Z"/><path class="cls-1" d="M92.33,48.07H89.64v-1h6.54v1h-2.7v7.86H92.33Z"/><path class="cls-1" d="M98.87,47.22A11.08,11.08,0,0,1,101,47a3.66,3.66,0,0,1,2.43.64,1.85,1.85,0,0,1,.73,1.56,2.1,2.1,0,0,1-1.49,1.94v0a2.28,2.28,0,0,1,1.82,2.21,2.38,2.38,0,0,1-.75,1.77,4.44,4.44,0,0,1-3.05.83,13.26,13.26,0,0,1-1.77-.11ZM100,50.84h1c1.21,0,1.91-.63,1.91-1.48,0-1-.79-1.44-1.94-1.44a4.92,4.92,0,0,0-1,.08Zm0,4.23a6.11,6.11,0,0,0,1,.05c1.18,0,2.27-.43,2.27-1.72s-1-1.7-2.28-1.7H100Z"/><path class="cls-1" d="M115,51.43c0,3-1.85,4.65-4.1,4.65s-4-1.81-4-4.48S108.63,47,111,47,115,48.81,115,51.43Zm-6.86.14c0,1.89,1,3.58,2.82,3.58s2.83-1.67,2.83-3.67c0-1.76-.92-3.59-2.82-3.59S108.11,49.63,108.11,51.57Z"/><path class="cls-1" d="M117.87,47.22a12,12,0,0,1,2.19-.18,3.61,3.61,0,0,1,2.56.72,2.2,2.2,0,0,1,.69,1.68,2.32,2.32,0,0,1-1.66,2.25v0a2.2,2.2,0,0,1,1.3,1.78,14.11,14.11,0,0,0,.68,2.42h-1.18a11.48,11.48,0,0,1-.59-2.11c-.26-1.22-.73-1.68-1.77-1.72H119v3.83h-1.14Zm1.14,4h1.17c1.22,0,2-.67,2-1.68s-.83-1.64-2-1.65A4.73,4.73,0,0,0,119,48Z"/><path class="cls-1" d="M134,51.43c0,3-1.85,4.65-4.1,4.65s-4-1.81-4-4.48S127.63,47,130,47,134,48.81,134,51.43Zm-6.86.14c0,1.89,1,3.58,2.82,3.58s2.83-1.67,2.83-3.67c0-1.76-.92-3.59-2.82-3.59S127.1,49.63,127.1,51.57Z"/><path class="cls-1" d="M138,47.1v5.23c0,2,.88,2.82,2.06,2.82s2.15-.87,2.15-2.82V47.1h1.15v5.15c0,2.71-1.43,3.83-3.34,3.83s-3.17-1-3.17-3.78V47.1Z"/><path class="cls-1" d="M153.54,55.54a8.22,8.22,0,0,1-2.71.49,4.15,4.15,0,0,1-4.54-4.46A4.43,4.43,0,0,1,151.07,47a5.46,5.46,0,0,1,2.2.41l-.28.93a4.57,4.57,0,0,0-2-.38,3.3,3.3,0,0,0-3.55,3.55,3.24,3.24,0,0,0,3.41,3.57,3.72,3.72,0,0,0,1.52-.24V52.21h-1.8V51.3h2.91Z"/><path class="cls-1" d="M157.86,47.1v3.7h4.27V47.1h1.15v8.83h-1.15V51.79h-4.27v4.14h-1.14V47.1Z"/><line class="cls-2" x1="172.25" y1="51.2" x2="195.32" y2="51.2"/><line class="cls-2" x1="5.53" y1="51.2" x2="28.6" y2="51.2"/></svg>